<svg height="20px" width="16px" viewBox="0 0 16 20" version="1.1" class="filter disabled" xmlns="http://www.w3.org/2000/svg">
	<g transform="translate(.25424 -.084746)">
		<path d="m14.246 0.050847-7.5 7.5v5.5c0 0.55 0.375 0.75 0.832 0.445l1.336-0.891c0.458-0.304 0.832-1.004 0.832-1.554v-4l5.232-5.232c0.972-0.973 0.643-1.768-0.732-1.768z"/>
		<path d="m12.152-0.85615c-0.048-0.108-0.11-0.211-0.199-0.3-0.391-0.391-1.023-0.391-1.414 0l-1.207 1.207h-7.086c-1.375 0-1.705 0.795-0.732 1.768l3.025 3.025-3.5 3.5c-0.391 0.391-0.391 1.023 0 1.414 0.195 0.195 0.451 0.293 0.707 0.293s0.512-0.098 0.707-0.293l0.707-0.707 8.793-8.793c0.302-0.302 0.364-0.746 0.199-1.114z"/>
	</g>
</svg>
