<svg class="filter disabled" viewBox="0 0 16 20"><g><path d="M14.5,2L7,9.5V15c0,0.55,0.375,0.75,0.832,0.445l1.336-0.891C9.626,14.25,10,13.55,10,13V9l5.232-5.232   C16.204,2.795,15.875,2,14.5,2z"/><path d="M12.406,1.093c-0.048-0.108-0.11-0.211-0.199-0.3c-0.391-0.391-1.023-0.391-1.414,0L9.586,2H2.5   C1.125,2,0.795,2.795,1.768,3.768l3.025,3.025l-3.5,3.5c-0.391,0.391-0.391,1.023,0,1.414C1.488,11.902,1.744,12,2,12   s0.512-0.098,0.707-0.293L3.414,11l8.793-8.793C12.509,1.905,12.571,1.461,12.406,1.093z"/></g><text x="0" y="31" fill="#000000" font-size="5px" font-weight="bold" font-family="'Helvetica Neue', Helvetica, Arial-Unicode, Arial, Sans-serif">Created by Rflor</text><text x="0" y="36" fill="#000000" font-size="5px" font-weight="bold" font-family="'Helvetica Neue', Helvetica, Arial-Unicode, Arial, Sans-serif">from the Noun Project</text></svg>
