<svg xmlns="http://www.w3.org/2000/svg" xmlns:xlink="http://www.w3.org/1999/xlink" version="1.1" x="0px" y="0px" viewBox="0 0 100 125" enable-background="new 0 0 100 100" xml:space="preserve"><path fill="#000000" d="M78.674,49.87c-0.111-0.868-0.743-0.769-1.068-0.644c-1.105,0.426-3.735,0.646-4.974,0.475  c-3.024-0.423-2.725-2.133-2.725-2.133s3.51,1.729,5.882,0.527c1.549-0.785,2.725-1.617,6.948-0.086c0,0,5.013,1.651,7.263,2.007  v-0.032c-2.25,0.355-7.263,2.004-7.263,2.004c-4.224,1.533-5.399,0.701-6.948-0.084c-2.372-1.197-5.882,0.525-5.882,0.525  s-0.3-1.707,2.725-2.13c1.238-0.174,3.868,0.049,4.974,0.475c0.342,0.13,1.022,0.231,1.08-0.783L78.674,49.87z M79.961,50  c0,0.546-0.339,1.011-0.817,1.199c0.148,0.058,0.307,0.091,0.474,0.091c0.713,0,1.289-0.579,1.289-1.29  c0-0.713-0.576-1.289-1.289-1.289c-0.167,0-0.325,0.033-0.474,0.093C79.622,48.992,79.961,49.454,79.961,50z M82.704,50  c0,0.37-0.228,0.686-0.553,0.813c0.101,0.04,0.207,0.061,0.32,0.061c0.483,0,0.876-0.391,0.876-0.874  c0-0.485-0.393-0.875-0.876-0.875c-0.113,0-0.22,0.022-0.32,0.064C82.477,49.317,82.704,49.631,82.704,50z M81.395,50.003  c0,0.437-0.272,0.804-0.653,0.957c0.116,0.044,0.244,0.072,0.379,0.072c0.569,0,1.031-0.463,1.031-1.029  c0-0.571-0.462-1.034-1.031-1.034c-0.135,0-0.263,0.03-0.379,0.074C81.122,49.194,81.395,49.566,81.395,50.003z"/><g><line fill="#000000" x1="10" y1="49.998" x2="54.026" y2="49.998"/><path fill="#000000" d="M10,49.998c3.67-0.084,7.338-0.123,11.009-0.158l11.004-0.049L43.02,49.84l5.503,0.059l5.503,0.1   l-5.503,0.103l-5.503,0.058l-11.007,0.047l-11.004-0.047C17.338,50.124,13.67,50.084,10,49.998z"/></g><g><line fill="#000000" x1="51.492" y1="49.998" x2="72.216" y2="49.998"/><path fill="#000000" d="M51.492,49.998c3.454-1.099,6.906-1.352,10.36-1.396c3.455,0.042,6.909,0.291,10.363,1.396   c-3.454,1.108-6.908,1.359-10.363,1.401C58.398,51.351,54.946,51.1,51.492,49.998z"/></g><text x="0" y="115" fill="#000000" font-size="5px" font-weight="bold" font-family="'Helvetica Neue', Helvetica, Arial-Unicode, Arial, Sans-serif">Created by Bettina Tan</text><text x="0" y="120" fill="#000000" font-size="5px" font-weight="bold" font-family="'Helvetica Neue', Helvetica, Arial-Unicode, Arial, Sans-serif">from the Noun Project</text></svg>