<svg xmlns="http://www.w3.org/2000/svg" enable-background="new 0 0 100 100" version="1.1" viewBox="0 0 100 125" y="0px" x="0px">
 <path d="m78.674 49.87c-0.111-0.868-0.743-0.769-1.068-0.644-1.105 0.426-3.735 0.646-4.974 0.475-3.024-0.423-2.725-2.133-2.725-2.133s3.51 1.729 5.882 0.527c1.549-0.785 2.725-1.617 6.948-0.086 0 0 5.013 1.651 7.263 2.007v-0.032c-2.25 0.355-7.263 2.004-7.263 2.004-4.224 1.533-5.399 0.701-6.948-0.084-2.372-1.197-5.882 0.525-5.882 0.525s-0.3-1.707 2.725-2.13c1.238-0.174 3.868 0.049 4.974 0.475 0.342 0.13 1.022 0.231 1.08-0.783l-0.012-0.121zm1.287 0.13c0 0.546-0.339 1.011-0.817 1.199 0.148 0.058 0.307 0.091 0.474 0.091 0.713 0 1.289-0.579 1.289-1.29 0-0.713-0.576-1.289-1.289-1.289-0.167 0-0.325 0.033-0.474 0.093 0.478 0.188 0.817 0.65 0.817 1.196zm2.743 0c0 0.37-0.228 0.686-0.553 0.813 0.101 0.04 0.207 0.061 0.32 0.061 0.483 0 0.876-0.391 0.876-0.874 0-0.485-0.393-0.875-0.876-0.875-0.113 0-0.22 0.022-0.32 0.064 0.326 0.128 0.553 0.442 0.553 0.811zm-1.309 0.003c0 0.437-0.272 0.804-0.653 0.957 0.116 0.044 0.244 0.072 0.379 0.072 0.569 0 1.031-0.463 1.031-1.029 0-0.571-0.462-1.034-1.031-1.034-0.135 0-0.263 0.03-0.379 0.074 0.38 0.151 0.653 0.523 0.653 0.96z"/>
 <g>
  <line x1="10" y1="49.998" x2="54.026" y2="49.998"/>
  <path d="m10 49.998c3.67-0.084 7.338-0.123 11.009-0.158l11.004-0.049 11.007 0.049 5.503 0.059 5.503 0.1-5.503 0.103-5.503 0.058-11.007 0.047-11.004-0.047c-3.671-0.036-7.339-0.076-11.009-0.162z"/>
 </g>
 <g>
  <line x1="51.492" y1="49.998" x2="72.216" y2="49.998"/>
  <path d="m51.492 49.998c3.454-1.099 6.906-1.352 10.36-1.396 3.455 0.042 6.909 0.291 10.363 1.396-3.454 1.108-6.908 1.359-10.363 1.401-3.454-0.048-6.906-0.299-10.36-1.401z"/>
 </g>
 <text font-size="5px" x="0" font-family="&apos;Helvetica Neue&apos;, Helvetica, Arial-Unicode, Arial, Sans-serif" fill="#000000" font-weight="bold" y="115">Created by Bettina Tan</text>
 <text font-size="5px" x="0" font-family="&apos;Helvetica Neue&apos;, Helvetica, Arial-Unicode, Arial, Sans-serif" fill="#000000" font-weight="bold" y="120">from the Noun Project</text>
</svg>
