<svg xmlns="http://www.w3.org/2000/svg" xmlns:xlink="http://www.w3.org/1999/xlink" version="1.1" id="Layer_1" x="0px" y="0px" width="96px" height="96px" viewBox="0 0 96 96" enable-background="new 0 0 96 96" xml:space="preserve">
<path d="M60,58v14h20V58c0-1.1-0.9-2-2-2H62C60.9,56,60,56.9,60,58z"/>
<path d="M36,38.304V72h16V38.304C59.052,35.208,64,28.18,64,20C64,8.972,55.027,0,44,0C32.972,0,24,8.972,24,20  C24,28.18,28.948,35.208,36,38.304z M44,6c7.721,0,14,6.28,14,14c0,1.104-0.9,2-2,2s-2-0.896-2-2c0-5.512-4.488-10-10-10  c-1.104,0-2-0.896-2-2S42.896,6,44,6z"/>
<path d="M94,76H2c-1.104,0-2,0.9-2,2v16c0,1.1,0.896,2,2,2h92c1.1,0,2-0.9,2-2V78C96,76.9,95.1,76,94,76z"/>
</svg>