<?xml version="1.0" encoding="UTF-8" standalone="no"?>
<svg class="event" xmlns:rdf="http://www.w3.org/1999/02/22-rdf-syntax-ns#" xmlns="http://www.w3.org/2000/svg" version="1.1" xmlns:cc="http://creativecommons.org/ns#" xmlns:dc="http://purl.org/dc/elements/1.1/" viewBox="0 0 137 156">
	<g style="enable-background:new" transform="translate(79.6 240)">
		<g transform="matrix(8.9,0,0,8.9,341,114)">
			<g transform="matrix(1.02,0,0,1.02,-2.75,2.41)">
				<path class="path1" fill="#fff" d="m-29.5-39.1h-1.61v0.536c0 0.591-0.481 1.07-1.07 1.07-0.591 0-1.07-0.481-1.07-1.07v-0.536h-5.36v0.536c0 0.591-0.481 1.07-1.07 1.07-0.591 0-1.07-0.481-1.07-1.07v-0.536h-1.61c-0.589 0-1.07 0.482-1.07 1.07v11.8c0 0.589 0.482 1.07 1.07 1.07h12.9c0.589 0 1.07-0.482 1.07-1.07v-11.8c0-0.589-0.482-1.07-1.07-1.07zm0 12.9c-0.000522 0.000523-0.001 0.0017-0.0022 0.0022h-12.9c-0.000537-0.000522-0.0017-0.001-0.0022-0.0022v-9.64h12.9v9.64zm-10.2-11.8c0.296 0 0.536-0.24 0.536-0.536v-2.14c0-0.296-0.24-0.536-0.536-0.536s-0.536 0.24-0.536 0.536v2.14c0 0.296 0.24 0.536 0.536 0.536zm7.5 0c0.296 0 0.536-0.24 0.536-0.536v-2.14c0-0.296-0.24-0.536-0.536-0.536s-0.536 0.24-0.536 0.536v2.14c0 0.296 0.24 0.536 0.536 0.536zm2.28 13.3h-12.1c-0.589 0-1.07-0.348-1.07-0.938v0.536c0 0.589 0.482 1.07 1.07 1.07h12.1c0.589 0 1.07-0.482 1.07-1.07v-0.536c0 0.589-0.482 0.938-1.07 0.938z"/>
				<text class="day" y="-28" x="-35.888073" font-family="'Audiowide', cursive" fill="#ffffff">29</text>
			</g>
		</g>
	</g>
</svg>