<svg xmlns="http://www.w3.org/2000/svg" version="1.1" enable-background="new 0 0 100 100" viewBox="0 0 100 125" x="0px" y="0px" xml:space="preserve">
		<path d="m90.474 5.04h-28.685c-2.3 0-4.164 1.864-4.164 4.164s1.864 4.164 4.164 4.164h19.095l-40.864 40.864c-1.627 1.626-1.627 4.263 0 5.889 0.813 0.813 1.879 1.22 2.944 1.22s2.131-0.407 2.944-1.22l40.402-40.403v18.17c0 2.3 1.864 4.164 4.164 4.164s4.164-1.864 4.164-4.164v-28.684c0-2.3-1.864-4.164-4.164-4.164z" fill="#333332"/><path d="m76.071 46.976c-2.3 0-4.164 1.864-4.164 4.164v32.852c0 1.505-1.271 2.776-2.776 2.776h-53.09c-1.505 0-2.776-1.271-2.776-2.776v-53.09c0-1.505 1.271-2.776 2.776-2.776h32.968c2.3 0 4.164-1.864 4.164-4.164s-1.864-4.164-4.164-4.164h-32.968c-6.123 0-11.104 4.981-11.104 11.104v53.09c0 6.123 4.981 11.104 11.104 11.104h53.09c6.123 0 11.104-4.981 11.104-11.104v-32.852c0-2.299-1.864-4.164-4.164-4.164z"/>
</svg>
