<svg class="icons" xmlns="http://www.w3.org/2000/svg">
	<symbol id="event" viewBox="0 0 100 100">
		<ellipse cx="197.327" cy="15.819" rx="19.364" ry="19.577"/>
		<polyline points="187.566,50.479 197.148,40.792 207.458,50.327 197.986,79.801 187.566,50.479 "/>
		<polyline points="186.063,45.872 187.203,48.787 196.223,39.792 "/>
		<polyline points="208.591,45.872 207.637,48.677 198.186,39.683 "/>
		<path d="M193.361,89.152l-16.805-50.5c0,0-17.102-2.909-19.086,6.916v36.636"/>
		<path d="M237.195,82.203V45.567c-1.985-9.825-19.088-6.916-19.088-6.916l-16.803,50.501 M229.542,70.7H218.25l-1-10.563h13.292  L229.542,70.7z"/>
		<rect x="219.25" y="61.875" width="9.48" height="1.042"/>
		<path d="M177.899-125.765c0.884-2.593,17.318-47.773,39.391-2.641c0,0,2.203,17.909,12.652,16.124l-25.783,4.729l1.256,10.626  h-14.058l1.117-10.078c-5.704-2.423-20.04-6.296-26.046-4.494L177.899-125.765z"/>
		<polygon points="191.166,-95.966 181.533,-90.6 214.841,-90.6 205.846,-95.966 "/>
		<path d="M-139.569,138.422c0,1.332-1.08,2.411-2.411,2.411h-4.196c-1.331,0-2.411-1.079-2.411-2.411l0,0  c0-1.332,1.08-2.411,2.411-2.411h4.196C-140.649,136.011-139.569,137.09-139.569,138.422L-139.569,138.422z"/>
		<path d="M-91.5,125.875c0,0,3.009,9.75,14.004,9.25"/>
		<path d="M177.69-88.438c-16.44,6.478-5.729,34.149-5.729,34.149l28.013,0.011l-1.44-23.579L177.69-88.438z"/>
		<path d="M219.195-88.445c16.44,6.478,5.729,34.149,5.729,34.149l-26.527,0.01l0.136-23.57L219.195-88.445z"/>
		<path d="M-54.454,124.383l-2.687-0.73c0,0,4.284-1.814,4.792-2.396c0.508-0.581,0.726-10.528,0.726-10.528s6.752-10.455,15.174,0  v7.986c0,0,2.687,4.938,4.356,5.083c1.669,0.146-1.815,0.585-1.815,0.585s1.705,0.794,2.268,0.794s-3.134,5.519-6.041,3.776  l-1.6-2.979l-0.726-2.031l-2.033-1.309c0,0-2.323-1.017-2.904-1.017s-1.888,0-1.888,0h-1.943l-1.542,0.728l-0.581,0.58l-0.073,0.436  l1.307,1.889c0,0-1.67,4.021-3.267,4.043c0,0-5.308-0.938-3.558-3.825C-54.737,122.579-54.454,124.383-54.454,124.383z"/>
		<circle cx="55.13" cy="146.365" r="16.251"/>
		<circle cx="92.68" cy="146.365" r="16.251"/>
		<polygon points="129.053,174.05 129.053,203.505 110.77,196.396 110.77,181.837 "/>
		<path d="M105.574,165.869H43.283c-3.421,0-6.195,2.773-6.195,6.196v33.424c0,3.423,2.774,6.196,6.195,6.196h62.291  c3.422,0,6.195-2.773,6.195-6.196v-25.268v-8.156C111.77,168.643,108.996,165.869,105.574,165.869z M92.55,201.478H56.308v-25.4  H92.55V201.478z M102.152,178.325c-1.882,0-3.407-1.526-3.407-3.408s1.525-3.407,3.407-3.407s3.407,1.525,3.407,3.407  S104.034,178.325,102.152,178.325z"/>
		<ellipse cx="-154.561" cy="-47.604" rx="14.969" ry="14.818"/>
		<ellipse cx="-184.5" cy="-47.604" rx="14.969" ry="14.818"/>
		<polygon points="-130.401,-36.728 -130.401,-11.702 -150.361,-18.089 -150.361,-29.582 "/>
		<rect x="-176.244" y="-12.702" width="15.193" height="16.229"/>
		<rect x="-171.75" y="2.528" width="6.419" height="26.965"/>
		<path d="M-184.162,30.636"/>
		<polygon points="-186.719,25.785 -175.211,-2.035 -171.75,3.528 -183.129,28.352 "/>
		<polygon points="-150.362,25.785 -161.87,-2.035 -165.331,3.528 -153.952,28.352 "/>
		<path d="M-191.784-34.155v22.454h44.151v-16.935v-5.519H-191.784z M-150.361-14.792h-3.075v-16.822h3.075V-14.792z"/>
		<path d="M-239.534,90.672c-26.372,0-47.75,21.379-47.75,47.75c0,26.372,21.378,47.75,47.75,47.75c26.372,0,47.75-21.378,47.75-47.75  C-191.784,112.051-213.162,90.672-239.534,90.672z M-235.747,114.496h7.025v7.025h-7.025V114.496z M-242.78,121.521h7.025v7.025  h-7.025V121.521z M-249.843,128.459h7.025v7.025h-7.025V128.459z M-256.905,135.396h7.025v7.025h-7.025V135.396z M-249.905,142.462  h7.025v7.025h-7.025V142.462z M-242.843,149.487h7.025v7.025h-7.025V149.487z M-235.825,156.486h7.025v7.025h-7.025V156.486z"/>
		<path d="M418.039-71.298c-26.004,0-47.084,21.08-47.084,47.083c0,26.003,21.08,47.083,47.084,47.083  c26.003,0,47.083-21.08,47.083-47.083C465.122-50.218,444.042-71.298,418.039-71.298z M417.876,16.979  c-22.751,0-41.194-18.443-41.194-41.193c0-22.75,18.443-41.194,41.194-41.194c22.75,0,41.194,18.443,41.194,41.194  C459.07-1.464,440.626,16.979,417.876,16.979z"/>
		<polygon points="408.277,-3.679 409.912,-2.585 427.657,-23.908 426.348,-25.154 "/>
		<polygon points="427.185,-24.23 425.583,-23.087 407.217,-43.878 408.49,-45.163 "/>
		<circle cx="-467.445" cy="-104.462" r="5.937"/>
		<polygon points="-442.482,-145.438 -439.768,-142.724 -463.188,-108.595 -466.011,-110.399 "/>
		<polygon points="-464.563,-98.526 -442.482,-75.359 -437.921,-81.729 -462.274,-101.552 "/>
		<rect x="-519.874" y="-108.595" width="15.348" height="5.725"/>
		<rect x="-413.016" y="-108.595" width="15.348" height="5.725"/>
		<rect x="-472.236" y="-163.616" transform="matrix(0.0151 -0.9999 0.9999 0.0151 -296.8074 -622.8329)" width="15.348" height="5.725"/>
		<rect x="-473.684" y="-55.02" transform="matrix(0.0151 -0.9999 0.9999 0.0151 -406.8166 -517.3268)" width="15.348" height="5.725"/>
		<polygon points="-499.604,-24.97 -490.047,-20.916 -494.825,-0.066 -509.16,-5.857 "/>
		<polygon points="-405.342,-19.757 -395.642,-24.97 -382.321,1.093 -397.668,8.5 "/>
		<path d="M-507.986-155.092c0,0-61.704,65.52,57.69,128.066v5.207c0,0-130.809-42.983-64.204-133.273H-507.986z"/>
		<path d="M-406.052-182.313c0,0-61.704,65.52,57.69,128.066v5.207c0,0-130.809-42.983-64.204-133.273H-406.052z"/>
		<path d="M295.438,143.32h-69.593c-5.055,0-9.154,4.098-9.154,9.154v59.584c0,5.057,4.1,9.154,9.154,9.154h69.593  c5.055,0,9.154-4.098,9.154-9.154v-59.584C304.593,147.418,300.493,143.32,295.438,143.32z M299.903,173.523  c0,5.455-4.515,9.878-10.079,9.878h-58.069c-5.567,0-10.079-4.423-10.079-9.878v-11.207c0-5.455,4.512-9.879,10.079-9.879h58.069  c5.564,0,10.079,4.424,10.079,9.879V173.523z"/>
		<path d="M240.977,158.621c0,2.697-2.188,4.885-4.886,4.885l0,0c-2.698,0-4.885-2.188-4.885-4.885v-18.593  c0-2.697,2.187-4.885,4.885-4.885l0,0c2.698,0,4.886,2.188,4.886,4.885V158.621z"/>
		<path d="M256.654,158.621c0,2.697-2.188,4.885-4.885,4.885l0,0c-2.699,0-4.885-2.188-4.885-4.885v-18.593  c0-2.697,2.186-4.885,4.885-4.885l0,0c2.697,0,4.885,2.188,4.885,4.885V158.621z"/>
		<path d="M274.151,158.621c0,2.697-2.188,4.885-4.887,4.885l0,0c-2.698,0-4.885-2.188-4.885-4.885v-18.593  c0-2.697,2.187-4.885,4.885-4.885l0,0c2.698,0,4.887,2.188,4.887,4.885V158.621z"/>
		<path d="M290.511,158.621c0,2.697-2.188,4.885-4.887,4.885l0,0c-2.697,0-4.884-2.188-4.884-4.885v-18.593  c0-2.697,2.187-4.885,4.884-4.885l0,0c2.698,0,4.887,2.188,4.887,4.885V158.621z"/>
		<rect x="7" y="17.718" width="10.592" height="75.459"/>
		<rect x="82.779" y="17.718" width="10.59" height="75.459"/>
		<rect x="7" y="81.708" width="86.369" height="11.469"/>
		<rect x="23.157" y="39.469" width="11.128" height="10.521"/>
		<rect x="44.621" y="39.469" width="11.129" height="10.521"/>
		<rect x="66.469" y="39.469" width="11.127" height="10.521"/>
		<rect x="23.157" y="60.908" width="11.128" height="10.522"/>
		<rect x="44.621" y="60.908" width="11.129" height="10.522"/>
		<rect x="66.469" y="60.908" width="11.127" height="10.522"/>
		<path d="M39.246,23.533c0,3.074-2.491,5.564-5.563,5.564l0,0c-3.073,0-5.564-2.491-5.564-5.564V12.37  c0-3.073,2.491-5.564,5.564-5.564l0,0c3.072,0,5.563,2.491,5.563,5.564V23.533z"/>
		<path d="M72.033,23.3c0,3.074-2.492,5.564-5.563,5.564l0,0c-3.074,0-5.564-2.491-5.564-5.564V12.138c0-3.074,2.49-5.564,5.564-5.564  l0,0c3.07,0,5.563,2.491,5.563,5.564V23.3z"/>
	</symbol>
	<symbol id="joystick" viewBox="0 0 96 96">
		<path d="M60,58v14h20V58c0-1.1-0.9-2-2-2H62C60.9,56,60,56.9,60,58z"/>
		<path d="M36,38.304V72h16V38.304C59.052,35.208,64,28.18,64,20C64,8.972,55.027,0,44,0C32.972,0,24,8.972,24,20  C24,28.18,28.948,35.208,36,38.304z M44,6c7.721,0,14,6.28,14,14c0,1.104-0.9,2-2,2s-2-0.896-2-2c0-5.512-4.488-10-10-10  c-1.104,0-2-0.896-2-2S42.896,6,44,6z"/>
		<path d="M94,76H2c-1.104,0-2,0.9-2,2v16c0,1.1,0.896,2,2,2h92c1.1,0,2-0.9,2-2V78C96,76.9,95.1,76,94,76z"/>
	</symbol>
	<symbol id="video" viewBox="0 0 100 100">
		<g display="none">
			<path display="inline" fill-rule="evenodd" clip-rule="evenodd" d="M20.574,64.951h11.054c-0.673-1.912-1.123-3.93-1.318-6.023   h-8.533c-7.975,0-14.44-6.473-14.44-14.456c0-7.983,6.466-14.456,14.44-14.456h21.862c7.977,0,14.441,6.473,14.441,14.456   c0,6.489-4.268,11.978-10.146,13.806c0.824,1.5,2.18,3.689,3.862,5.385C59.568,60.76,65.1,53.266,65.1,44.472   c0-11.31-9.158-20.479-20.458-20.479H20.574c-11.299,0-20.458,9.17-20.458,20.479C0.116,55.785,9.275,64.951,20.574,64.951z"/>
			<path display="inline" fill-rule="evenodd" clip-rule="evenodd" d="M35.015,56.52c0,11.311,9.16,20.48,20.458,20.48h24.068   C90.841,77,100,67.83,100,56.52c0-11.312-9.159-20.48-20.458-20.48H68.471c0.677,1.913,1.13,3.931,1.33,6.023h8.738   c7.974,0,14.439,6.474,14.439,14.457c0,7.984-6.466,14.457-14.439,14.457H56.677c-7.976,0-14.442-6.473-14.442-14.457   c0-6.615,4.437-12.19,10.495-13.908c-0.447-2.259-1.676-4.238-3.4-5.632C41.034,39.592,35.015,47.352,35.015,56.52z"/>
		</g>
		<g>
			<path d="M88,17H12C5.373,17,0,22.373,0,29v42c0,6.627,5.373,12,12,12h76c6.627,0,12-5.373,12-12V29C100,22.373,94.627,17,88,17z    M42,62.802V35.913l23.287,13.445L42,62.802z"/>
		</g>
	</symbol>
	<symbol id="roundup" viewBox="0 0 148 148">
		<g>
			<path d="m50 10c10.7 0 20.7 4.2 28.3 11.7 7.5 7.6 11.7 17.6 11.7 28.3s-4.2 20.7-11.7 28.3c-7.6 7.5-17.6 11.7-28.3 11.7s-20.7-4.2-28.3-11.7c-7.5-7.6-11.7-17.6-11.7-28.3s4.2-20.7 11.7-28.3c7.6-7.5 17.6-11.7 28.3-11.7m0-10c-27.6 0-50 22.4-50 50s22.4 50 50 50 50-22.4 50-50-22.4-50-50-50z"/>
			<path transform="matrix(1.3 0 0 1.3 29 27)" d="m16 0-16 16h10v16h12v-16h10z"/>
		</g>
	</symbol>
	<symbol id="logo" viewBox="0 0 320 320">
		<g>
			<g transform="translate(-17.5 -15.5)">
				<path d="m93.7 25.3-68.4 68.3" stroke-linecap="round" stroke-width="15.6"/>
				<g transform="translate(2)">
					<path d="m52.4 153 36.6-37" stroke-linecap="round" stroke-width="15.3"/>
				</g>
				<path d="m271 22.5-246 246" stroke-linecap="round" stroke-width="14"/>
				<g transform="translate(60,-60)">
					<path d="m52.4 153 36.6-37" stroke-linecap="round" stroke-width="15.3"/>
				</g>
			</g>
			<g transform="matrix(-1 0 0 -1 316 319)">
				<path d="m93.7 25.3-68.4 68.3" stroke-linecap="round" stroke-width="15.6"/>
				<g transform="translate(2)">
					<path d="m52.4 153 36.6-37" stroke-linecap="round" stroke-width="15.3"/>
				</g>
				<path d="m271 22.5-246 246" stroke-linecap="round" stroke-width="14"/>
				<g transform="translate(60,-60)">
					<path d="m52.4 153 36.6-37" stroke-linecap="round" stroke-width="15.3"/>
				</g>
			</g>
		</g>
	</symbol>
	<symbol id="solidhaxe" viewBox="0 0 360 360">
		<g>
			<path d="m0 0h91.2l88 44 89-44h89v88.3l-46 89.8 46 90v89h-89.8l-88.2-45-89 45h-90l1-91 43-88-44-88z" stroke-width="1px"/>
		</g>
	</symbol>
	<symbol id="clock" viewBox="0 0 100 100">
		<g>
			<path d="M50,10c10.684,0,20.729,4.161,28.284,11.716C85.84,29.271,90,39.315,90,50s-4.16,20.729-11.716,28.284    C70.729,85.839,60.684,90,50,90c-10.685,0-20.729-4.161-28.285-11.716C14.161,70.729,10,60.685,10,50s4.161-20.729,11.715-28.284    C29.271,14.161,39.315,10,50,10 M50,0C22.386,0,0,22.386,0,50s22.386,50,50,50s50-22.386,50-50S77.614,0,50,0L50,0z"/>
		</g>
		<g>
			<polygon points="66.465,73.535 45,52.071 45,30 55,30 55,47.929 73.535,66.464   "/>
		</g>
	</symbol>
	<symbol id="person" viewBox="0 0 100 100">
		<path d="M87.919,91.087L84.356,61.61c-0.592-4.903-5.118-8.915-10.059-8.915H25.697c-4.937,0-9.463,4.012-10.055,8.915  l-3.565,29.477C11.485,95.989,15.04,100,19.98,100h43.195c4.939,0,12.77,0,17.4,0C85.207,100,88.511,95.989,87.919,91.087z"/>
		<circle cx="49.999" cy="22.869" r="22.869"/>
	</symbol>
</svg>