<?xml version="1.0" encoding="UTF-8" standalone="no"?>
<!-- Created with Inkscape (http://www.inkscape.org/) -->

<svg
   xmlns:dc="http://purl.org/dc/elements/1.1/"
   xmlns:cc="http://creativecommons.org/ns#"
   xmlns:rdf="http://www.w3.org/1999/02/22-rdf-syntax-ns#"
   xmlns:svg="http://www.w3.org/2000/svg"
   xmlns="http://www.w3.org/2000/svg"
   version="1.1"
   width="744.09448"
   height="1052.3622"
   id="svg2">
  <defs
     id="defs4">
    <g
       id="icon-radio-unchecked">
      <path
         d="M 16,0 C 7.163,0 0,7.163 0,16 0,24.837 7.163,32 16,32 24.837,32 32,24.837 32,16 32,7.163 24.837,0 16,0 z m 0,28 C 9.373,28 4,22.627 4,16 4,9.373 9.373,4 16,4 c 6.627,0 12,5.373 12,12 0,6.627 -5.373,12 -12,12 z"
         id="path3912" />
    </g>
  </defs>
  <metadata
     id="metadata7">
    <rdf:RDF>
      <cc:Work
         rdf:about="">
        <dc:format>image/svg+xml</dc:format>
        <dc:type
           rdf:resource="http://purl.org/dc/dcmitype/StillImage" />
        <dc:title></dc:title>
      </cc:Work>
    </rdf:RDF>
  </metadata>
  <g
     id="layer1">
    <g
       transform="translate(3.5641627,7.1501229)"
       id="layer1-4"
       style="fill:#000000">
      <g
         transform="matrix(4.5986684,0,0,4.5986684,-26.071429,919.84765)"
         id="g3914"
         style="fill:#000000;stroke-width:0.86981702;stroke-miterlimit:4;stroke-dasharray:none">
        <g
           transform="matrix(0.21745425,0,0,0.21745425,-20.578912,13.204159)"
           id="g3787"
           style="fill:#000000">
          <g
             transform="translate(117.14286,-35.357143)"
             id="g3789">
            <path
               d="M 50,10 C 60.684,10 70.729,14.161 78.284,21.716 85.84,29.271 90,39.315 90,50 90,60.685 85.84,70.729 78.284,78.284 70.729,85.839 60.684,90 50,90 39.315,90 29.271,85.839 21.715,78.284 14.161,70.729 10,60.685 10,50 10,39.315 14.161,29.271 21.715,21.716 29.271,14.161 39.315,10 50,10 M 50,0 C 22.386,0 0,22.386 0,50 0,77.614 22.386,100 50,100 77.614,100 100,77.614 100,50 100,22.386 77.614,0 50,0 l 0,0 z"
               id="path3791" />
          </g>
        </g>
      </g>
      <g
         transform="matrix(1.2527473,0,0,1.2527473,26.554945,975.48129)"
         id="g3957"
         style="fill:#000000">
        <g
           id="icomoon-ignore"
           style="fill:#000000">
          <line
             style="fill:#000000;stroke:#449fdb;stroke-width:1"
             x1="0"
             y1="0"
             x2="0"
             y2="0"
             opacity=""
             id="line3947" />
        </g>
        <path
           d="M 16,0 0,16 h 10 v 16 l 12,0 V 16 h 10 z"
           id="path3949"
           style="fill:#000000" />
      </g>
    </g>
  </g>
</svg>
